<svg width="140" height="140" viewBox="0 0 140 140" fill="none" xmlns="http://www.w3.org/2000/svg">
<circle cx="70" cy="70" r="70" fill="#2034A3"/>
<path d="M69.0354 91.0671C69.4955 91.911 69.7549 92.8793 69.7549 93.9061C69.7549 97.1946 67.09 99.8595 63.8015 99.8595C61.2823 99.8595 59.1308 98.2979 58.2621 96.0878L58.2603 96.0825L54.4015 87.9421L48.6258 75.7564L45.9396 70.0855V64.1268H51.893C55.1814 64.1268 57.8463 61.4619 57.8463 58.1734C57.8463 54.8849 55.1814 52.22 51.893 52.22H39.9862V93.8972C39.9862 97.1857 37.3213 99.8506 34.0328 99.8506C30.7443 99.8506 28.0776 97.1857 28.0776 93.8955V46.1458C28.0776 43.1025 30.357 40.5939 33.3044 40.2368H33.3062L34.811 40.2439C34.8127 40.2439 34.8127 40.2439 34.8163 40.2439L51.861 40.3292H51.9498C52.0493 40.3292 52.1506 40.331 52.2501 40.331C58.557 40.4553 64.0609 43.8469 67.138 48.88C68.7973 51.5911 69.7549 54.7765 69.7549 58.1894C69.7549 65.1359 65.7877 71.1568 59.996 74.1095L67.3689 87.9385L69.0354 91.0671Z" fill="#FFCC01"/>
<path d="M93.5701 64.1355V76.0334H87.6167V93.9042C87.6167 97.1927 84.9518 99.8576 81.6633 99.8576C78.3749 99.8576 75.71 97.1927 75.71 93.9042V46.2647C75.71 42.9762 78.3749 40.3113 81.6633 40.3113C83.3067 40.3113 84.7973 40.9775 85.8739 42.0541C86.9505 43.1307 87.6167 44.6213 87.6167 46.2647V64.1355H93.5701Z" fill="#FFCC01"/>
<path d="M111.433 46.2647V93.906C111.433 97.1945 108.768 99.8594 105.479 99.8594C102.191 99.8594 99.5259 97.1945 99.5259 93.906V46.2647C99.5259 42.9762 102.191 40.3113 105.479 40.3113C107.123 40.3113 108.613 40.9775 109.69 42.0541C110.766 43.1307 111.433 44.6213 111.433 46.2647Z" fill="#FFCC01"/>
</svg>
