<svg width="140" height="140" viewBox="0 0 140 140" fill="none" xmlns="http://www.w3.org/2000/svg">
<circle cx="70" cy="70" r="70" fill="#4A4B4C"/>
<path d="M122.591 30.4663L113.161 44.6114C110.767 48.1658 107.648 51.2124 103.948 53.3886L88.0622 62.9637C84.9431 64.8497 82.6943 67.7513 81.6063 71.2332L70.3627 108.808L59.0467 71.1606C58.0311 67.6787 55.7099 64.7772 52.5907 62.8912L36.7773 53.3886C33.0778 51.1399 29.9586 48.1658 27.5648 44.6114L18.1348 30.4663L30.3938 38.6632C35.1814 41.8549 40.7669 43.5233 46.4975 43.5233H94.228C99.9586 43.5233 105.544 41.8549 110.332 38.6632L122.591 30.4663Z" fill="#E1E3D8"/>
<path d="M102.933 63.9792L103.005 82.6943V92.8497C103.005 98.7979 100.176 104.383 95.4611 107.938L80.7358 118.964C78.1969 120.85 75.1503 121.865 72.0311 121.865H68.6218C65.5026 121.865 62.456 120.85 59.9171 118.964L45.1917 107.938C40.4767 104.383 37.7202 98.7979 37.7202 92.8497V82.6943L37.7928 63.9792L57.3057 76.1658H44.3212L44.2487 93.3575C44.2487 97.9274 46.3523 102.28 50.0518 104.964L60.1347 112.508C62.5285 114.321 65.4301 115.264 68.4042 115.264H72.2487C75.2228 115.264 78.1244 114.321 80.5181 112.508L90.601 104.964C94.3005 102.207 96.4042 97.9274 96.4042 93.3575V76.1658H83.4197L94.7358 70.5077C95.8238 69.9274 96.8394 69.2746 97.7824 68.4767L102.933 63.9792Z" fill="#E1E3D8"/>
</svg>
