<svg width="682" height="498" viewBox="0 0 682 498" fill="none" xmlns="http://www.w3.org/2000/svg">
<g filter="url(#filter0_f_427_6)">
<rect x="44" y="473" width="216" height="17" rx="8.5" fill="#313131" fill-opacity="0.25"/>
<rect x="108" y="411" width="279" height="17" rx="8.5" fill="#313131" fill-opacity="0.25"/>
<rect x="395" y="349" width="279" height="17" rx="8.5" fill="#313131" fill-opacity="0.25"/>
<rect x="52" y="349" width="279" height="17" rx="8.5" fill="#313131" fill-opacity="0.25"/>
<rect x="52" y="225" width="279" height="17" rx="8.5" fill="#313131" fill-opacity="0.25"/>
<rect x="268" y="473" width="127" height="17" rx="8.5" fill="#313131" fill-opacity="0.25"/>
<rect x="348" y="442" width="127" height="17" rx="8.5" fill="#313131" fill-opacity="0.25"/>
<rect x="56" y="442" width="127" height="17" rx="8.5" fill="#313131" fill-opacity="0.25"/>
<rect x="190" y="442" width="127" height="17" rx="8.5" fill="#313131" fill-opacity="0.25"/>
<rect x="84" y="318" width="127" height="17" rx="8.5" fill="#313131" fill-opacity="0.25"/>
<rect x="231" y="287" width="213" height="17" rx="8.5" fill="#313131" fill-opacity="0.25"/>
<rect x="8" y="194" width="213" height="17" rx="8.5" fill="#313131" fill-opacity="0.25"/>
<rect x="14" y="132" width="213" height="17" rx="8.5" fill="#313131" fill-opacity="0.25"/>
<rect x="44" y="287" width="76" height="17" rx="8.5" fill="#313131" fill-opacity="0.25"/>
<rect x="149" y="287" width="76" height="17" rx="8.5" fill="#313131" fill-opacity="0.25"/>
<rect x="143" y="163" width="76" height="17" rx="8.5" fill="#313131" fill-opacity="0.25"/>
<rect x="44" y="8" width="76" height="17" rx="8.5" fill="#313131" fill-opacity="0.25"/>
<rect x="230" y="163" width="76" height="17" rx="8.5" fill="#313131" fill-opacity="0.25"/>
<rect x="52" y="256" width="76" height="17" rx="8.5" fill="#313131" fill-opacity="0.25"/>
<rect x="395" y="411" width="127" height="17" rx="8.5" fill="#313131" fill-opacity="0.25"/>
<rect x="63" y="380" width="127" height="17" rx="8.5" fill="#313131" fill-opacity="0.25"/>
<rect x="197" y="380" width="127" height="17" rx="8.5" fill="#313131" fill-opacity="0.25"/>
<rect x="221" y="318" width="174" height="17" rx="8.5" fill="#313131" fill-opacity="0.25"/>
<rect x="143" y="256" width="174" height="17" rx="8.5" fill="#313131" fill-opacity="0.25"/>
<rect x="332" y="380" width="127" height="17" rx="8.5" fill="#313131" fill-opacity="0.25"/>
<rect x="411" y="318" width="127" height="17" rx="8.5" fill="#313131" fill-opacity="0.25"/>
<rect x="70" y="101" width="127" height="17" rx="8.5" fill="#313131" fill-opacity="0.25"/>
<rect x="44" y="70" width="127" height="17" rx="8.5" fill="#313131" fill-opacity="0.25"/>
<rect x="65" y="39" width="127" height="17" rx="8.5" fill="#313131" fill-opacity="0.25"/>
<rect x="324" y="442" width="17" height="17" rx="8.5" fill="#313131" fill-opacity="0.25"/>
<rect x="126" y="287" width="17" height="17" rx="8.5" fill="#313131" fill-opacity="0.25"/>
<rect x="366" y="349" width="17" height="17" rx="8.5" fill="#313131" fill-opacity="0.25"/>
<rect x="84" y="163" width="17" height="17" rx="8.5" fill="#313131" fill-opacity="0.25"/>
<rect x="132" y="8" width="17" height="17" rx="8.5" fill="#313131" fill-opacity="0.25"/>
<rect x="554" y="318" width="17" height="17" rx="8.5" fill="#313131" fill-opacity="0.25"/>
<rect x="340" y="349" width="17" height="17" rx="8.5" fill="#313131" fill-opacity="0.25"/>
<rect x="109" y="163" width="17" height="17" rx="8.5" fill="#313131" fill-opacity="0.25"/>
<rect x="236" y="194" width="17" height="17" rx="8.5" fill="#313131" fill-opacity="0.25"/>
<rect x="84" y="411" width="17" height="17" rx="8.5" fill="#313131" fill-opacity="0.25"/>
</g>
<defs>
<filter id="filter0_f_427_6" x="0" y="0" width="682" height="498" filterUnits="userSpaceOnUse" color-interpolation-filters="sRGB">
<feFlood flood-opacity="0" result="BackgroundImageFix"/>
<feBlend mode="normal" in="SourceGraphic" in2="BackgroundImageFix" result="shape"/>
<feGaussianBlur stdDeviation="4" result="effect1_foregroundBlur_427_6"/>
</filter>
</defs>
</svg>
