<svg width="694" height="507" viewBox="0 0 694 507" fill="none" xmlns="http://www.w3.org/2000/svg">
<g filter="url(#filter0_f_427_81)">
<rect x="649.351" y="25.3062" width="219.892" height="17.3063" rx="8.65315" transform="rotate(-180 649.351 25.3062)" fill="#313131" fill-opacity="0.25"/>
<rect x="584.198" y="88.4233" width="284.027" height="17.3063" rx="8.65315" transform="rotate(-180 584.198 88.4233)" fill="#313131" fill-opacity="0.25"/>
<rect x="292.027" y="151.54" width="284.027" height="17.3063" rx="8.65315" transform="rotate(-180 292.027 151.54)" fill="#313131" fill-opacity="0.25"/>
<rect x="641.207" y="151.54" width="284.027" height="17.3063" rx="8.65315" transform="rotate(-180 641.207 151.54)" fill="#313131" fill-opacity="0.25"/>
<rect x="641.207" y="277.775" width="284.027" height="17.3063" rx="8.65315" transform="rotate(-180 641.207 277.775)" fill="#313131" fill-opacity="0.25"/>
<rect x="421.315" y="25.3062" width="129.288" height="17.3063" rx="8.65315" transform="rotate(-180 421.315 25.3062)" fill="#313131" fill-opacity="0.25"/>
<rect x="339.874" y="56.8647" width="129.288" height="17.3063" rx="8.65315" transform="rotate(-180 339.874 56.8647)" fill="#313131" fill-opacity="0.25"/>
<rect x="637.135" y="56.8647" width="129.288" height="17.3063" rx="8.65315" transform="rotate(-180 637.135 56.8647)" fill="#313131" fill-opacity="0.25"/>
<rect x="500.721" y="56.8647" width="129.288" height="17.3063" rx="8.65315" transform="rotate(-180 500.721 56.8647)" fill="#313131" fill-opacity="0.25"/>
<rect x="608.631" y="183.099" width="129.288" height="17.3063" rx="8.65315" transform="rotate(-180 608.631 183.099)" fill="#313131" fill-opacity="0.25"/>
<rect x="458.982" y="214.657" width="216.838" height="17.3063" rx="8.65315" transform="rotate(-180 458.982 214.657)" fill="#313131" fill-opacity="0.25"/>
<rect x="686" y="309.333" width="216.838" height="17.3063" rx="8.65315" transform="rotate(-180 686 309.333)" fill="#313131" fill-opacity="0.25"/>
<rect x="679.892" y="372.45" width="216.838" height="17.3063" rx="8.65315" transform="rotate(-180 679.892 372.45)" fill="#313131" fill-opacity="0.25"/>
<rect x="649.351" y="214.657" width="77.3694" height="17.3063" rx="8.65315" transform="rotate(-180 649.351 214.657)" fill="#313131" fill-opacity="0.25"/>
<rect x="542.459" y="214.657" width="77.3694" height="17.3063" rx="8.65315" transform="rotate(-180 542.459 214.657)" fill="#313131" fill-opacity="0.25"/>
<rect x="548.568" y="340.892" width="77.3694" height="17.3063" rx="8.65315" transform="rotate(-180 548.568 340.892)" fill="#313131" fill-opacity="0.25"/>
<rect x="649.351" y="498.685" width="77.3694" height="17.3063" rx="8.65315" transform="rotate(-180 649.351 498.685)" fill="#313131" fill-opacity="0.25"/>
<rect x="460" y="340.892" width="77.3694" height="17.3063" rx="8.65315" transform="rotate(-180 460 340.892)" fill="#313131" fill-opacity="0.25"/>
<rect x="641.207" y="246.216" width="77.3694" height="17.3063" rx="8.65315" transform="rotate(-180 641.207 246.216)" fill="#313131" fill-opacity="0.25"/>
<rect x="292.027" y="88.4232" width="129.288" height="17.3063" rx="8.65315" transform="rotate(-180 292.027 88.4232)" fill="#313131" fill-opacity="0.25"/>
<rect x="630.009" y="119.982" width="129.288" height="17.3063" rx="8.65315" transform="rotate(-180 630.009 119.982)" fill="#313131" fill-opacity="0.25"/>
<rect x="493.595" y="119.982" width="129.288" height="17.3063" rx="8.65315" transform="rotate(-180 493.595 119.982)" fill="#313131" fill-opacity="0.25"/>
<rect x="469.162" y="183.099" width="177.135" height="17.3063" rx="8.65315" transform="rotate(-180 469.162 183.099)" fill="#313131" fill-opacity="0.25"/>
<rect x="548.568" y="246.216" width="177.135" height="17.3063" rx="8.65315" transform="rotate(-180 548.568 246.216)" fill="#313131" fill-opacity="0.25"/>
<rect x="356.162" y="119.982" width="129.288" height="17.3063" rx="8.65315" transform="rotate(-180 356.162 119.982)" fill="#313131" fill-opacity="0.25"/>
<rect x="275.739" y="183.099" width="129.288" height="17.3063" rx="8.65315" transform="rotate(-180 275.739 183.099)" fill="#313131" fill-opacity="0.25"/>
<rect x="622.883" y="404.009" width="129.288" height="17.3063" rx="8.65315" transform="rotate(-180 622.883 404.009)" fill="#313131" fill-opacity="0.25"/>
<rect x="649.351" y="435.568" width="129.288" height="17.3063" rx="8.65315" transform="rotate(-180 649.351 435.568)" fill="#313131" fill-opacity="0.25"/>
<rect x="627.973" y="467.126" width="129.288" height="17.3063" rx="8.65315" transform="rotate(-180 627.973 467.126)" fill="#313131" fill-opacity="0.25"/>
<rect x="364.306" y="56.8647" width="17.3063" height="17.3063" rx="8.65315" transform="rotate(-180 364.306 56.8647)" fill="#313131" fill-opacity="0.25"/>
<rect x="565.874" y="214.657" width="17.3063" height="17.3063" rx="8.65315" transform="rotate(-180 565.874 214.657)" fill="#313131" fill-opacity="0.25"/>
<rect x="321.55" y="151.54" width="17.3063" height="17.3063" rx="8.65315" transform="rotate(-180 321.55 151.54)" fill="#313131" fill-opacity="0.25"/>
<rect x="608.631" y="340.892" width="17.3063" height="17.3063" rx="8.65315" transform="rotate(-180 608.631 340.892)" fill="#313131" fill-opacity="0.25"/>
<rect x="559.766" y="498.685" width="17.3063" height="17.3063" rx="8.65315" transform="rotate(-180 559.766 498.685)" fill="#313131" fill-opacity="0.25"/>
<rect x="130.162" y="183.099" width="17.3063" height="17.3063" rx="8.65315" transform="rotate(-180 130.162 183.099)" fill="#313131" fill-opacity="0.25"/>
<rect x="348.018" y="151.54" width="17.3063" height="17.3063" rx="8.65315" transform="rotate(-180 348.018 151.54)" fill="#313131" fill-opacity="0.25"/>
<rect x="583.18" y="340.892" width="17.3063" height="17.3063" rx="8.65315" transform="rotate(-180 583.18 340.892)" fill="#313131" fill-opacity="0.25"/>
<rect x="453.892" y="309.333" width="17.3063" height="17.3063" rx="8.65315" transform="rotate(-180 453.892 309.333)" fill="#313131" fill-opacity="0.25"/>
<rect x="608.631" y="88.4233" width="17.3063" height="17.3063" rx="8.65315" transform="rotate(-180 608.631 88.4233)" fill="#313131" fill-opacity="0.25"/>
</g>
<defs>
<filter id="filter0_f_427_81" x="0" y="-0.00012207" width="694" height="506.685" filterUnits="userSpaceOnUse" color-interpolation-filters="sRGB">
<feFlood flood-opacity="0" result="BackgroundImageFix"/>
<feBlend mode="normal" in="SourceGraphic" in2="BackgroundImageFix" result="shape"/>
<feGaussianBlur stdDeviation="4" result="effect1_foregroundBlur_427_81"/>
</filter>
</defs>
</svg>
