<svg width="1267" height="618" viewBox="0 0 1267 618" fill="none" xmlns="http://www.w3.org/2000/svg">
<g opacity="0.3" filter="url(#filter0_f_427_121)">
<rect x="1217" y="23" width="216" height="17" rx="8.5" transform="rotate(180 1217 23)" fill="#1779D1"/>
<rect x="1153" y="85" width="279" height="17" rx="8.5" transform="rotate(180 1153 85)" fill="#DD7C00"/>
<rect x="866" y="147" width="279" height="17" rx="8.5" transform="rotate(180 866 147)" fill="#DD7C00"/>
<rect x="670" y="240" width="279" height="17" rx="8.5" transform="rotate(180 670 240)" fill="#1779D1"/>
<rect x="1209" y="147" width="279" height="17" rx="8.5" transform="rotate(180 1209 147)" fill="#1779D1"/>
<rect x="1209" y="271" width="279" height="17" rx="8.5" transform="rotate(180 1209 271)" fill="#DD7C00"/>
<rect x="904" y="333" width="279" height="17" rx="8.5" transform="rotate(180 904 333)" fill="#1779D1"/>
<rect x="850" y="426" width="279" height="17" rx="8.5" transform="rotate(180 850 426)" fill="#1779D1"/>
<rect x="520" y="426" width="143" height="17" rx="8.50001" transform="rotate(180 520 426)" fill="#9F09BD"/>
<rect x="993" y="23" width="127" height="17" rx="8.5" transform="rotate(180 993 23)" fill="#9F09BD"/>
<rect x="913" y="54" width="127" height="17" rx="8.5" transform="rotate(180 913 54)" fill="#9F09BD"/>
<rect x="1205" y="54" width="127" height="17" rx="8.5" transform="rotate(180 1205 54)" fill="#DD7C00"/>
<rect x="1071" y="54" width="127" height="17" rx="8.5" transform="rotate(180 1071 54)" fill="#1779D1"/>
<rect x="1177" y="178" width="127" height="17" rx="8.5" transform="rotate(180 1177 178)" fill="#DD7C00"/>
<rect x="1030" y="209" width="213" height="17" rx="8.5" transform="rotate(180 1030 209)" fill="#1779D1"/>
<rect x="900" y="240" width="213" height="17" rx="8.5" transform="rotate(180 900 240)" fill="#1779D1"/>
<rect x="609" y="333" width="213" height="17" rx="8.5" transform="rotate(180 609 333)" fill="#DD7C00"/>
<rect x="360" y="333" width="354" height="17" rx="8.50002" transform="rotate(180 360 333)" fill="#9F09BD"/>
<rect x="1080" y="426" width="213" height="17" rx="8.5" transform="rotate(180 1080 426)" fill="#DD7C00"/>
<rect x="1197" y="519" width="213" height="17" rx="8.5" transform="rotate(180 1197 519)" fill="#1779D1"/>
<rect x="1091" y="488" width="200" height="17" rx="8.50001" transform="rotate(180 1091 488)" fill="#9F09BD"/>
<rect x="1051" y="457" width="213" height="17" rx="8.5" transform="rotate(180 1051 457)" fill="#DD7C00"/>
<rect x="818" y="457" width="118" height="17" rx="8.5" transform="rotate(180 818 457)" fill="#DD7C00"/>
<rect x="1034" y="550" width="213" height="17" rx="8.5" transform="rotate(180 1034 550)" fill="#9F09BD"/>
<rect x="1187" y="612" width="213" height="17" rx="8.5" transform="rotate(180 1187 612)" fill="#1779D1"/>
<rect x="1255" y="581" width="213" height="17" rx="8.5" transform="rotate(180 1255 581)" fill="#9F09BD"/>
<rect x="955" y="581" width="213" height="17" rx="8.5" transform="rotate(180 955 581)" fill="#DD7C00"/>
<rect x="1261" y="550" width="213" height="17" rx="8.5" transform="rotate(180 1261 550)" fill="#1779D1"/>
<rect x="1253" y="302" width="213" height="17" rx="8.5" transform="rotate(180 1253 302)" fill="#9F09BD"/>
<rect x="994" y="302" width="213" height="17" rx="8.5" transform="rotate(180 994 302)" fill="#9F09BD"/>
<rect x="765" y="302" width="145" height="17" rx="8.50001" transform="rotate(180 765 302)" fill="#1779D1"/>
<rect x="609" y="302" width="232" height="17" rx="8.50001" transform="rotate(180 609 302)" fill="#9F09BD"/>
<rect x="1247" y="364" width="213" height="17" rx="8.5" transform="rotate(180 1247 364)" fill="#DD7C00"/>
<rect x="1040" y="395" width="213" height="17" rx="8.5" transform="rotate(180 1040 395)" fill="#DD7C00"/>
<rect x="811" y="395" width="162" height="17" rx="8.50001" transform="rotate(180 811 395)" fill="#9F09BD"/>
<rect x="1217" y="209" width="76" height="17" rx="8.5" transform="rotate(180 1217 209)" fill="#1779D1"/>
<rect x="1112" y="209" width="76" height="17" rx="8.5" transform="rotate(180 1112 209)" fill="#DD7C00"/>
<rect x="1118" y="333" width="76" height="17" rx="8.5" transform="rotate(180 1118 333)" fill="#DD7C00"/>
<rect x="1217" y="488" width="76" height="17" rx="8.5" transform="rotate(180 1217 488)" fill="#DD7C00"/>
<rect x="1031" y="333" width="76" height="17" rx="8.5" transform="rotate(180 1031 333)" fill="#9F09BD"/>
<rect x="1209" y="240" width="76" height="17" rx="8.5" transform="rotate(180 1209 240)" fill="#1779D1"/>
<rect x="866" y="85.0001" width="127" height="17" rx="8.5" transform="rotate(180 866 85.0001)" fill="#1779D1"/>
<rect x="1198" y="116" width="127" height="17" rx="8.5" transform="rotate(180 1198 116)" fill="#1779D1"/>
<rect x="1064" y="116" width="127" height="17" rx="8.5" transform="rotate(180 1064 116)" fill="#1779D1"/>
<rect x="1040" y="178" width="174" height="17" rx="8.5" transform="rotate(180 1040 178)" fill="#1779D1"/>
<rect x="1118" y="240" width="174" height="17" rx="8.5" transform="rotate(180 1118 240)" fill="#9F09BD"/>
<rect x="929" y="116" width="127" height="17" rx="8.5" transform="rotate(180 929 116)" fill="#9F09BD"/>
<rect x="850" y="178" width="127" height="17" rx="8.5" transform="rotate(180 850 178)" fill="#9F09BD"/>
<rect x="811" y="209" width="127" height="17" rx="8.5" transform="rotate(180 811 209)" fill="#DD7C00"/>
<rect x="878" y="271" width="127" height="17" rx="8.5" transform="rotate(180 878 271)" fill="#DD7C00"/>
<rect x="1191" y="395" width="127" height="17" rx="8.5" transform="rotate(180 1191 395)" fill="#9F09BD"/>
<rect x="1217" y="426" width="127" height="17" rx="8.5" transform="rotate(180 1217 426)" fill="#9F09BD"/>
<rect x="1196" y="457" width="127" height="17" rx="8.5" transform="rotate(180 1196 457)" fill="#1779D1"/>
<rect x="937" y="54" width="17" height="17" rx="8.5" transform="rotate(180 937 54)" fill="#DD7C00"/>
<rect x="1135" y="209" width="17" height="17" rx="8.5" transform="rotate(180 1135 209)" fill="#DD7C00"/>
<rect x="927" y="240" width="17" height="17" rx="8.5" transform="rotate(180 927 240)" fill="#DD7C00"/>
<rect x="913" y="271" width="17" height="17" rx="8.5" transform="rotate(180 913 271)" fill="#1779D1"/>
<rect x="895" y="147" width="17" height="17" rx="8.5" transform="rotate(180 895 147)" fill="#9F09BD"/>
<rect x="1177" y="333" width="17" height="17" rx="8.5" transform="rotate(180 1177 333)" fill="#DD7C00"/>
<rect x="1129" y="488" width="17" height="17" rx="8.5" transform="rotate(180 1129 488)" fill="#DD7C00"/>
<rect x="983" y="581" width="17" height="17" rx="8.5" transform="rotate(180 983 581)" fill="#1779D1"/>
<rect x="1017" y="581" width="17" height="17" rx="8.5" transform="rotate(180 1017 581)" fill="#DD7C00"/>
<rect x="707" y="178" width="17" height="17" rx="8.5" transform="rotate(180 707 178)" fill="#DD7C00"/>
<rect x="386" y="333" width="17" height="17" rx="8.5" transform="rotate(180 386 333)" fill="#1779D1"/>
<rect x="554" y="426" width="17" height="17" rx="8.5" transform="rotate(180 554 426)" fill="#DD7C00"/>
<rect x="625" y="395" width="17" height="17" rx="8.5" transform="rotate(180 625 395)" fill="#DD7C00"/>
<rect x="588" y="395" width="17" height="17" rx="8.5" transform="rotate(180 588 395)" fill="#1779D1"/>
<rect x="921" y="147" width="17" height="17" rx="8.5" transform="rotate(180 921 147)" fill="#1779D1"/>
<rect x="1152" y="333" width="17" height="17" rx="8.5" transform="rotate(180 1152 333)" fill="#1779D1"/>
<rect x="1025" y="302" width="17" height="17" rx="8.5" transform="rotate(180 1025 302)" fill="#DD7C00"/>
<rect x="939" y="333" width="17" height="17" rx="8.5" transform="rotate(180 939 333)" fill="#DD7C00"/>
<rect x="1177" y="85" width="17" height="17" rx="8.5" transform="rotate(180 1177 85)" fill="#9F09BD"/>
</g>
<mask id="mask0_427_121" style="mask-type:alpha" maskUnits="userSpaceOnUse" x="6" y="6" width="1255" height="606">
<rect x="1217" y="23" width="216" height="17" rx="8.5" transform="rotate(180 1217 23)" fill="#1779D1"/>
<rect x="1153" y="85" width="279" height="17" rx="8.5" transform="rotate(180 1153 85)" fill="#DD7C00"/>
<rect x="866" y="147" width="279" height="17" rx="8.5" transform="rotate(180 866 147)" fill="#DD7C00"/>
<rect x="670" y="240" width="279" height="17" rx="8.5" transform="rotate(180 670 240)" fill="#1779D1"/>
<rect x="1209" y="147" width="279" height="17" rx="8.5" transform="rotate(180 1209 147)" fill="#1779D1"/>
<rect x="1209" y="271" width="279" height="17" rx="8.5" transform="rotate(180 1209 271)" fill="#DD7C00"/>
<rect x="904" y="333" width="279" height="17" rx="8.5" transform="rotate(180 904 333)" fill="#1779D1"/>
<rect x="850" y="426" width="279" height="17" rx="8.5" transform="rotate(180 850 426)" fill="#1779D1"/>
<rect x="520" y="426" width="143" height="17" rx="8.50001" transform="rotate(180 520 426)" fill="#9F09BD"/>
<rect x="993" y="23" width="127" height="17" rx="8.5" transform="rotate(180 993 23)" fill="#9F09BD"/>
<rect x="913" y="54" width="127" height="17" rx="8.5" transform="rotate(180 913 54)" fill="#9F09BD"/>
<rect x="1205" y="54" width="127" height="17" rx="8.5" transform="rotate(180 1205 54)" fill="#DD7C00"/>
<rect x="1071" y="54" width="127" height="17" rx="8.5" transform="rotate(180 1071 54)" fill="#1779D1"/>
<rect x="1177" y="178" width="127" height="17" rx="8.5" transform="rotate(180 1177 178)" fill="#DD7C00"/>
<rect x="1030" y="209" width="213" height="17" rx="8.5" transform="rotate(180 1030 209)" fill="#1779D1"/>
<rect x="900" y="240" width="213" height="17" rx="8.5" transform="rotate(180 900 240)" fill="#1779D1"/>
<rect x="609" y="333" width="213" height="17" rx="8.5" transform="rotate(180 609 333)" fill="#DD7C00"/>
<rect x="360" y="333" width="354" height="17" rx="8.50002" transform="rotate(180 360 333)" fill="#9F09BD"/>
<rect x="1080" y="426" width="213" height="17" rx="8.5" transform="rotate(180 1080 426)" fill="#DD7C00"/>
<rect x="1197" y="519" width="213" height="17" rx="8.5" transform="rotate(180 1197 519)" fill="#1779D1"/>
<rect x="1091" y="488" width="200" height="17" rx="8.50001" transform="rotate(180 1091 488)" fill="#9F09BD"/>
<rect x="1051" y="457" width="213" height="17" rx="8.5" transform="rotate(180 1051 457)" fill="#DD7C00"/>
<rect x="818" y="457" width="118" height="17" rx="8.5" transform="rotate(180 818 457)" fill="#DD7C00"/>
<rect x="1034" y="550" width="213" height="17" rx="8.5" transform="rotate(180 1034 550)" fill="#9F09BD"/>
<rect x="1187" y="612" width="213" height="17" rx="8.5" transform="rotate(180 1187 612)" fill="#1779D1"/>
<rect x="1255" y="581" width="213" height="17" rx="8.5" transform="rotate(180 1255 581)" fill="#9F09BD"/>
<rect x="955" y="581" width="213" height="17" rx="8.5" transform="rotate(180 955 581)" fill="#DD7C00"/>
<rect x="1261" y="550" width="213" height="17" rx="8.5" transform="rotate(180 1261 550)" fill="#1779D1"/>
<rect x="1253" y="302" width="213" height="17" rx="8.5" transform="rotate(180 1253 302)" fill="#9F09BD"/>
<rect x="994" y="302" width="213" height="17" rx="8.5" transform="rotate(180 994 302)" fill="#9F09BD"/>
<rect x="765" y="302" width="145" height="17" rx="8.50001" transform="rotate(180 765 302)" fill="#1779D1"/>
<rect x="609" y="302" width="232" height="17" rx="8.50001" transform="rotate(180 609 302)" fill="#9F09BD"/>
<rect x="1247" y="364" width="213" height="17" rx="8.5" transform="rotate(180 1247 364)" fill="#DD7C00"/>
<rect x="1040" y="395" width="213" height="17" rx="8.5" transform="rotate(180 1040 395)" fill="#DD7C00"/>
<rect x="811" y="395" width="162" height="17" rx="8.50001" transform="rotate(180 811 395)" fill="#9F09BD"/>
<rect x="1217" y="209" width="76" height="17" rx="8.5" transform="rotate(180 1217 209)" fill="#1779D1"/>
<rect x="1112" y="209" width="76" height="17" rx="8.5" transform="rotate(180 1112 209)" fill="#DD7C00"/>
<rect x="1118" y="333" width="76" height="17" rx="8.5" transform="rotate(180 1118 333)" fill="#DD7C00"/>
<rect x="1217" y="488" width="76" height="17" rx="8.5" transform="rotate(180 1217 488)" fill="#DD7C00"/>
<rect x="1031" y="333" width="76" height="17" rx="8.5" transform="rotate(180 1031 333)" fill="#9F09BD"/>
<rect x="1209" y="240" width="76" height="17" rx="8.5" transform="rotate(180 1209 240)" fill="#1779D1"/>
<rect x="866" y="85.0001" width="127" height="17" rx="8.5" transform="rotate(180 866 85.0001)" fill="#1779D1"/>
<rect x="1198" y="116" width="127" height="17" rx="8.5" transform="rotate(180 1198 116)" fill="#1779D1"/>
<rect x="1064" y="116" width="127" height="17" rx="8.5" transform="rotate(180 1064 116)" fill="#1779D1"/>
<rect x="1040" y="178" width="174" height="17" rx="8.5" transform="rotate(180 1040 178)" fill="#1779D1"/>
<rect x="1118" y="240" width="174" height="17" rx="8.5" transform="rotate(180 1118 240)" fill="#9F09BD"/>
<rect x="929" y="116" width="127" height="17" rx="8.5" transform="rotate(180 929 116)" fill="#9F09BD"/>
<rect x="850" y="178" width="127" height="17" rx="8.5" transform="rotate(180 850 178)" fill="#9F09BD"/>
<rect x="811" y="209" width="127" height="17" rx="8.5" transform="rotate(180 811 209)" fill="#DD7C00"/>
<rect x="878" y="271" width="127" height="17" rx="8.5" transform="rotate(180 878 271)" fill="#DD7C00"/>
<rect x="1191" y="395" width="127" height="17" rx="8.5" transform="rotate(180 1191 395)" fill="#9F09BD"/>
<rect x="1217" y="426" width="127" height="17" rx="8.5" transform="rotate(180 1217 426)" fill="#9F09BD"/>
<rect x="1196" y="457" width="127" height="17" rx="8.5" transform="rotate(180 1196 457)" fill="#1779D1"/>
<rect x="937" y="54" width="17" height="17" rx="8.5" transform="rotate(180 937 54)" fill="#DD7C00"/>
<rect x="1135" y="209" width="17" height="17" rx="8.5" transform="rotate(180 1135 209)" fill="#DD7C00"/>
<rect x="927" y="240" width="17" height="17" rx="8.5" transform="rotate(180 927 240)" fill="#DD7C00"/>
<rect x="913" y="271" width="17" height="17" rx="8.5" transform="rotate(180 913 271)" fill="#1779D1"/>
<rect x="895" y="147" width="17" height="17" rx="8.5" transform="rotate(180 895 147)" fill="#9F09BD"/>
<rect x="1177" y="333" width="17" height="17" rx="8.5" transform="rotate(180 1177 333)" fill="#DD7C00"/>
<rect x="1129" y="488" width="17" height="17" rx="8.5" transform="rotate(180 1129 488)" fill="#DD7C00"/>
<rect x="983" y="581" width="17" height="17" rx="8.5" transform="rotate(180 983 581)" fill="#1779D1"/>
<rect x="1017" y="581" width="17" height="17" rx="8.5" transform="rotate(180 1017 581)" fill="#DD7C00"/>
<rect x="707" y="178" width="17" height="17" rx="8.5" transform="rotate(180 707 178)" fill="#DD7C00"/>
<rect x="386" y="333" width="17" height="17" rx="8.5" transform="rotate(180 386 333)" fill="#1779D1"/>
<rect x="554" y="426" width="17" height="17" rx="8.5" transform="rotate(180 554 426)" fill="#DD7C00"/>
<rect x="625" y="395" width="17" height="17" rx="8.5" transform="rotate(180 625 395)" fill="#DD7C00"/>
<rect x="588" y="395" width="17" height="17" rx="8.5" transform="rotate(180 588 395)" fill="#1779D1"/>
<rect x="921" y="147" width="17" height="17" rx="8.5" transform="rotate(180 921 147)" fill="#1779D1"/>
<rect x="1152" y="333" width="17" height="17" rx="8.5" transform="rotate(180 1152 333)" fill="#1779D1"/>
<rect x="1025" y="302" width="17" height="17" rx="8.5" transform="rotate(180 1025 302)" fill="#DD7C00"/>
<rect x="939" y="333" width="17" height="17" rx="8.5" transform="rotate(180 939 333)" fill="#DD7C00"/>
<rect x="1177" y="85" width="17" height="17" rx="8.5" transform="rotate(180 1177 85)" fill="#9F09BD"/>
</mask>
<g mask="url(#mask0_427_121)">
<rect x="-181" y="-220" width="1470" height="1080" fill="url(#paint0_linear_427_121)"/>
</g>
<defs>
<filter id="filter0_f_427_121" x="0" y="0" width="1267" height="618" filterUnits="userSpaceOnUse" color-interpolation-filters="sRGB">
<feFlood flood-opacity="0" result="BackgroundImageFix"/>
<feBlend mode="normal" in="SourceGraphic" in2="BackgroundImageFix" result="shape"/>
<feGaussianBlur stdDeviation="3" result="effect1_foregroundBlur_427_121"/>
</filter>
<linearGradient id="paint0_linear_427_121" x1="554" y1="-220" x2="554" y2="669" gradientUnits="userSpaceOnUse">
<stop offset="0.419426" stop-color="#2F5F9B" stop-opacity="0"/>
<stop offset="1" stop-opacity="0.25"/>
</linearGradient>
</defs>
</svg>
